<svg xmlns="http://www.w3.org/2000/svg" width="100%"
    viewBox="82.60800170898438 92.49199676513672 210.1209716796875 184.41605377197266" height="100%"
    version="1.0">
    <defs>
        <clipPath id="a">
            <path d="M169 212h37v30.492h-37Zm0 0" />
        </clipPath>
        <clipPath id="b">
            <path d="M112.43 149H144v38h-31.57Zm0 0" />
        </clipPath>
        <clipPath id="c">
            <path d="M169 92.492h37V124h-37Zm0 0" />
        </clipPath>
        <clipPath id="d">
            <path d="M231 149h31.43v38H231Zm0 0" />
        </clipPath>
    </defs>
    <path fill="#E9C46A"
        d="m166.402 116.648-.703 1.743a54.6 54.6 0 0 0-3.77 15.898l-.152 1.844 1.848.148c3.602.29 7.113.883 10.43 1.75l1.351.36.711-1.211a60.3 60.3 0 0 1 6.137-8.614l1.2-1.41-1.415-1.191a54.5 54.5 0 0 0-13.906-8.578Zm11.84 10.977a64 64 0 0 0-4.597 6.5 64 64 0 0 0-7.852-1.348 50.8 50.8 0 0 1 2.648-11.214 51 51 0 0 1 9.801 6.062m0 0" />
    <g clip-path="url(#a)">
        <path fill="#E9C46A"
            d="m187.496 242.613 1.008-.66a54.4 54.4 0 0 0 8.781-7.133c2.797-2.789 5.32-5.957 7.508-9.406l1.152-1.812-1.968-.868a60.5 60.5 0 0 1-15.274-9.644l-1.207-1.047-1.207 1.047a60.4 60.4 0 0 1-15.273 9.648l-1.965.867 1.148 1.81a54.3 54.3 0 0 0 7.5 9.405 54.3 54.3 0 0 0 8.79 7.133Zm-13.012-17.406a64.6 64.6 0 0 0 13.008-8.309 64.4 64.4 0 0 0 13.016 8.305 51 51 0 0 1-5.832 7.012 51.4 51.4 0 0 1-7.18 5.972 50.5 50.5 0 0 1-7.191-5.972 50.4 50.4 0 0 1-5.82-7.008m0 0" />
    </g>
    <path fill="#E9C46A"
        d="m208.574 218.473.703-1.743a54.6 54.6 0 0 0 3.766-15.894l.156-1.848-1.844-.148c-1.87-.149-3.39-.324-4.87-.567q-1.243-.21-2.407-.445a56 56 0 0 1-2.215-.504l-2.289-.59-.707 1.207c-1.726 2.957-3.793 5.856-6.137 8.61l-1.199 1.41 1.414 1.195a54.8 54.8 0 0 0 13.895 8.574Zm-11.832-10.98a64 64 0 0 0 4.598-6.497c.633.152 1.293.3 2.039.453.785.16 1.621.317 2.601.485a59 59 0 0 0 3.204.414 51.3 51.3 0 0 1-2.645 11.207 51.3 51.3 0 0 1-9.797-6.063m0 0" />
    <g clip-path="url(#b)">
        <path fill="#E9C46A"
            d="m131.477 186.027.855-1.972c1.434-3.278 3.086-6.336 4.902-9.078l1.028-1.504c.105-.149.222-.305.343-.465l.829-1.133c.32-.426.62-.809.933-1.2.242-.312.551-.687 1.051-1.288l1.586-1.82-1.05-1.215a56 56 0 0 1-2.731-3.395 53 53 0 0 1-1.97-2.785c-1.831-2.766-3.483-5.824-4.921-9.102l-.855-1.968-1.817 1.144a54.5 54.5 0 0 0-9.437 7.516 54.4 54.4 0 0 0-7.133 8.793l-.66 1.007.66 1.008a54.5 54.5 0 0 0 7.137 8.797c2.793 2.797 5.968 5.324 9.43 7.512Zm-14.622-18.465a51 51 0 0 1 5.98-7.19 50 50 0 0 1 7.028-5.837 63 63 0 0 0 4.32 7.68 59 59 0 0 0 2.172 3.07c.57.762 1.168 1.524 1.786 2.274a25 25 0 0 0-.664.828c-.372.457-.754.953-1.18 1.523l-.64.883c-.165.215-.329.437-.52.71l-.965 1.415a62 62 0 0 0-4.313 7.672 50.4 50.4 0 0 1-13.004-13.028m0 0" />
    </g>
    <path fill="#E9C46A"
        d="m166.402 218.477 1.735-.739a54.8 54.8 0 0 0 13.898-8.582l1.418-1.191-1.2-1.41c-2.339-2.754-4.405-5.653-6.136-8.618l-.707-1.207-1.355.356a60.3 60.3 0 0 1-10.434 1.75l-1.844.152.153 1.844a54.9 54.9 0 0 0 3.77 15.906Zm7.243-17.485a64 64 0 0 0 4.597 6.5 51 51 0 0 1-9.8 6.067 51 51 0 0 1-2.649-11.223c2.687-.29 5.32-.742 7.852-1.344m-39.239 19.641 1.18.242c3.61.766 7.36 1.152 11.148 1.152 4.067 0 8.13-.445 12.082-1.328l2.098-.469-.781-2a60.6 60.6 0 0 1-3.985-17.628l-.117-1.59-1.594-.117a60.8 60.8 0 0 1-17.636-3.98l-2-.782-.469 2.094a54.5 54.5 0 0 0-1.336 11.972c0 3.79.39 7.574 1.164 11.246Zm3.106-21.524a64.4 64.4 0 0 0 15.09 3.332 64.2 64.2 0 0 0 3.328 15.079c-6.094 1.097-12.41 1.093-18.395-.016a51 51 0 0 1-.847-9.305 50.5 50.5 0 0 1 .824-9.09m-.934-10.457 1.746.703a55 55 0 0 0 15.89 3.762l1.849.153.148-1.844c.289-3.598.879-7.11 1.75-10.43l.355-1.355-1.21-.707c-2.958-1.727-5.852-3.79-8.665-6.18l-1.418-1.059-1.484 1.735c-.254.3-.473.57-.746.918a13 13 0 0 0-.45.582l-.488.625c-.257.347-.507.683-.87 1.203l-1.048 1.492.012.008a53 53 0 0 0-4.637 8.664Zm8.457-8.379 1.977-2.773c.113-.133.222-.27.328-.422.066-.094.14-.187.21-.273a63 63 0 0 0 6.505 4.601 63 63 0 0 0-1.348 7.848 51.6 51.6 0 0 1-11.223-2.645 50 50 0 0 1 3.551-6.336m13.281-24.804-.355-1.356a60 60 0 0 1-1.75-10.418l-.149-1.847-1.847.156c-5.512.465-10.863 1.73-15.895 3.766l-1.734.703.726 1.726a54.5 54.5 0 0 0 4.743 8.82 55 55 0 0 0 1.797 2.54c.097.129.199.254.324.406l.14.172a54 54 0 0 0 1.586 1.96l1.196 1.415 1.41-1.203c2.746-2.336 5.637-4.403 8.601-6.137Zm-10.754 2.836a17 17 0 0 1-.324-.418l-.433-.535a57 57 0 0 1-1.707-2.415 50 50 0 0 1-3.606-6.425 51 51 0 0 1 11.215-2.645 64 64 0 0 0 1.348 7.84 65 65 0 0 0-6.493 4.598m-14.566-31.375c0 4.015.45 8.043 1.336 11.968l.473 2.094 1.996-.781a60.4 60.4 0 0 1 17.637-3.996l1.593-.117.117-1.59a60.4 60.4 0 0 1 3.985-17.621l.781-1.996-2.094-.473c-7.648-1.719-15.68-1.777-23.226-.184l-1.18.25-.246 1.176a54.6 54.6 0 0 0-1.172 11.27m4.547-9.317c5.988-1.11 12.309-1.11 18.39-.011a64 64 0 0 0-3.331 15.066 64 64 0 0 0-15.09 3.344 50.8 50.8 0 0 1 .031-18.399m0 0" />
    <path fill="#E9C46A"
        d="m210.402 177.64.075-.261c.05-.164.113-.316.195-.48.05-.098.098-.196.16-.29l.184-.23a2.5 2.5 0 0 1 .254-.27l.164-.152c.09-.074.207-.137.332-.21l.16-.114a54 54 0 0 0 10.215-6.649l1.722-1.422-1.722-1.421a53.5 53.5 0 0 0-10.09-6.59l-.219-.133a2.7 2.7 0 0 1-.414-.273l-.16-.145a2.5 2.5 0 0 1-.274-.305l-.101-.113-.04-.05a4 4 0 0 1-.238-.434c-.042-.09-.07-.184-.097-.266-.043-.133-.082-.246-.106-.371-.023-.094-.027-.184-.039-.281a3 3 0 0 1-.008-.332c0-.086-.003-.168.012-.286l.047-.222a1.7 1.7 0 0 0 .055-.317c.207-.636.402-1.277.656-2.093a55 55 0 0 0 1.723-8.547c.043-.313.066-.617.113-1.078l.226-2.461-2.222.21a54 54 0 0 0-11.918 2.524 2.875 2.875 0 0 1-3.465-1.437 54.6 54.6 0 0 0-6.668-10.227l-1.422-1.73-1.426 1.726a54.6 54.6 0 0 0-6.66 10.23 2.87 2.87 0 0 1-3.469 1.438 54.4 54.4 0 0 0-11.945-2.523l-2.23-.215.215 2.226a54 54 0 0 0 2.523 11.93 2.884 2.884 0 0 1-1.434 3.473 54.6 54.6 0 0 0-10.234 6.676l-1.715 1.425 1.723 1.418a54 54 0 0 0 10.219 6.653 2.88 2.88 0 0 1 1.441 3.472 54.6 54.6 0 0 0-2.523 11.946l-.215 2.226 2.23-.215a54.4 54.4 0 0 0 11.95-2.523c1.304-.442 2.84.183 3.464 1.437a54.3 54.3 0 0 0 6.66 10.227l1.422 1.726 1.426-1.726a54.3 54.3 0 0 0 6.668-10.23 2.88 2.88 0 0 1 3.48-1.43 52 52 0 0 0 4.168 1.21 59 59 0 0 0 4.282.872c1.12.183 2.281.332 3.457.441l2.215.215-.235-2.57c-.031-.336-.058-.668-.101-.98a55 55 0 0 0-1.778-8.72c-.195-.64-.394-1.28-.601-1.949l-.051-.28-.055-.227c-.011-.118-.011-.231-.011-.344 0-.082 0-.16.011-.266.008-.11.02-.21.04-.312m-.121-5.308a3.4 3.4 0 0 0-.418.25 6 6 0 0 0-.707.48 5 5 0 0 0-.488.434 7 7 0 0 0-.473.504q-.171.168-.308.355c-.078.11-.145.227-.137.227q.002.001.004-.004a8 8 0 0 0-.375.664 7 7 0 0 0-.461 1.18 6 6 0 0 0-.129.476 7 7 0 0 0-.125 1.32c0 .239.008.497.04.759.019.171.054.343.097.515l.035.207c.027.156.062.344.129.543.203.621.394 1.238.625 1.985a52 52 0 0 1 1.46 6.906c-.312-.047-.624-.09-.929-.14a54 54 0 0 1-3.996-.821 46 46 0 0 1-3.875-1.117c-3.078-1.051-6.5.355-7.96 3.273a50.7 50.7 0 0 1-4.794 7.727 51 51 0 0 1-4.785-7.727 6.52 6.52 0 0 0-5.863-3.621c-.7 0-1.399.113-2.07.336a50.4 50.4 0 0 1-8.848 2.082 51 51 0 0 1 2.082-8.852c1.023-3.07-.395-6.484-3.293-7.933a50.7 50.7 0 0 1-7.719-4.778 51 51 0 0 1 7.73-4.796c2.895-1.457 4.305-4.868 3.278-7.938A50 50 0 0 1 165.93 146a50.4 50.4 0 0 1 8.847 2.078c3.067 1.016 6.485-.39 7.938-3.289a50.7 50.7 0 0 1 4.785-7.723 50.6 50.6 0 0 1 4.79 7.727c1.452 2.898 4.862 4.309 7.937 3.281a50.4 50.4 0 0 1 8.832-2.078 52 52 0 0 1-1.508 7.024c-.192.62-.383 1.238-.582 1.859a5.4 5.4 0 0 0-.164.746 4 4 0 0 0-.094.508c-.035.265-.04.504-.04.73a7 7 0 0 0 .117 1.32c.06.29.146.567.232.829q.104.316.238.62c.148.325.316.634.465.84l.172.286c.09.125.19.238.218.254a7 7 0 0 0 .996 1.004 5.7 5.7 0 0 0 .875.586l.297.18a50 50 0 0 1 7.711 4.777 50.4 50.4 0 0 1-7.71 4.773m-1.535 2.629" />
    <path fill="#E9C46A"
        d="m208.582 116.648-1.73.735a54.5 54.5 0 0 0-13.903 8.574l-1.414 1.195 1.2 1.414a60.5 60.5 0 0 1 6.136 8.61l.711 1.21 1.352-.355a60 60 0 0 1 10.421-1.75l1.844-.152-.152-1.844a54.8 54.8 0 0 0-3.758-15.894Zm-7.238 17.477a64 64 0 0 0-4.602-6.504 51 51 0 0 1 9.801-6.058 51 51 0 0 1 2.64 11.214c-2.68.293-5.308.746-7.84 1.348m0 0" />
    <g clip-path="url(#c)">
        <path fill="#E9C46A"
            d="m187.492 92.492-1.004.66a54.7 54.7 0 0 0-8.789 7.149 55 55 0 0 0-7.5 9.41l-1.152 1.812 1.969.864a60.4 60.4 0 0 1 15.27 9.64l1.206 1.047 1.207-1.047a60.2 60.2 0 0 1 15.278-9.64l1.964-.864-1.144-1.812a54.6 54.6 0 0 0-7.5-9.414 55 55 0 0 0-8.793-7.14Zm13.02 17.422a64 64 0 0 0-13.02 8.3 64 64 0 0 0-13.008-8.296 50.7 50.7 0 0 1 5.832-7.008 51 51 0 0 1 7.18-5.992 52 52 0 0 1 7.195 5.984 50.4 50.4 0 0 1 5.82 7.012m0 0" />
    </g>
    <path fill="#E9C46A"
        d="M228.25 222.027c3.773 0 7.523-.386 11.145-1.144l1.183-.242.246-1.184a55 55 0 0 0 1.156-11.258c0-4.004-.445-8.027-1.328-11.969l-.472-2.093-2 .781c-1.118.437-2.118.8-3.055 1.11l-.336.105a41 41 0 0 1-1.184.37l-.23.067c-3.844 1.145-7.86 1.907-12.125 2.278l-2.305.16-.117 1.601a60.6 60.6 0 0 1-3.984 17.621l-.781 2.004 2.097.47a55.7 55.7 0 0 0 12.09 1.323m-5.879-19.511 1.082-.075v-.105a64 64 0 0 0 10.918-2.211l.285-.082a56 56 0 0 0 1.262-.398l1.562-.5a51 51 0 0 1 .813 9.054c0 3.145-.285 6.27-.84 9.305-6.004 1.105-12.324 1.105-18.406.012a64.5 64.5 0 0 0 3.324-15m4.109-29.716a60 60 0 0 1-8.605 6.134l-1.207.707.352 1.351a61 61 0 0 1 1.53 8.078c.09.73.165 1.473.22 2.2l.136 1.984 2.043-.14a55 55 0 0 0 12.344-2.528 54 54 0 0 0 3.375-1.23l1.742-.704-.738-1.73a54.5 54.5 0 0 0-8.582-13.906l-1.195-1.414Zm7.012 13.817a42 42 0 0 1-1.344.465 52 52 0 0 1-1.437.445 51 51 0 0 1-8.422 1.739c-.027-.215-.05-.434-.078-.653l-.008-.062a65 65 0 0 0-1.277-7.14 63 63 0 0 0 6.496-4.599 51 51 0 0 1 6.07 9.805m4.918-40.14-1.742-.704a54.6 54.6 0 0 0-15.887-3.77l-1.844-.155-.148 1.84a69 69 0 0 1-.242 2.414 61 61 0 0 1-1.527 8.023l-.348 1.352 1.207.707a60 60 0 0 1 8.605 6.14l1.41 1.2 1.196-1.415c3.566-4.222 6.457-8.898 8.582-13.902Zm-10.984 11.832a64 64 0 0 0-6.5-4.602 64 64 0 0 0 1.281-7.168q.042-.333.078-.672a50.7 50.7 0 0 1 11.207 2.64 51 51 0 0 1-6.066 9.802m13.226-19.419a54.8 54.8 0 0 0 .16-23.238l-.25-1.175-1.175-.247c-7.555-1.59-15.582-1.523-23.223.192l-2.094.473.778 2a60.4 60.4 0 0 1 3.98 17.62l.117 1.594 1.59.114a60.4 60.4 0 0 1 17.645 3.988l2 .777Zm-3.183-2.878a64.3 64.3 0 0 0-15.094-3.34 64 64 0 0 0-3.328-15.07c6.086-1.098 12.402-1.098 18.394.003a50.9 50.9 0 0 1 .028 18.407m0 0" />
    <g clip-path="url(#d)">
        <path fill="#E9C46A"
            d="m243.531 186.016 1.82-1.153a55.4 55.4 0 0 0 9.399-7.496 54.3 54.3 0 0 0 7.148-8.797l.66-1.011-.66-1.008a54.4 54.4 0 0 0-7.14-8.781c-2.785-2.79-5.953-5.313-9.41-7.504l-1.817-1.153-.86 1.969a60.6 60.6 0 0 1-9.648 15.27l-1.046 1.207 1.046 1.21a60.6 60.6 0 0 1 9.653 15.274Zm1.606-31.465a51 51 0 0 1 7.015 5.832 51 51 0 0 1 5.98 7.176 50.4 50.4 0 0 1-5.984 7.191 51 51 0 0 1-7.007 5.824 64.3 64.3 0 0 0-8.313-13.015 64.2 64.2 0 0 0 8.309-13.008m0 0" />
    </g>
    <path
        d="M82.608 259.205h4.547l4.812 11.719h.203l4.813-11.72h4.547v17.454h-3.579v-11.36h-.14l-4.516 11.283h-2.437l-4.532-11.329h-.14v11.406h-3.578Zm25.192 17.453h-3.953l6.016-17.453h4.765l6.016 17.453h-3.953l-1.297-3.984h-6.297Zm2.235-6.86h4.422l-2.141-6.609h-.14Zm22.167-5.577q-.094-1.033-.875-1.594-.784-.576-2.109-.578c-.906 0-1.602.187-2.078.562q-.72.549-.719 1.39-.018.94.797 1.423.827.486 1.953.75l1.578.375q1.514.328 2.688.984c.789.43 1.41.984 1.86 1.672.456.68.687 1.5.687 2.469-.012 1.593-.61 2.867-1.797 3.812q-1.784 1.424-4.985 1.422-3.174 0-5.078-1.453-1.893-1.453-1.953-4.281h3.578q.095 1.314 1.032 1.984.935.656 2.375.656c.937 0 1.687-.195 2.25-.594q.843-.608.843-1.562c0-.582-.258-1.031-.765-1.344q-.77-.48-2.188-.828l-1.906-.484q-2.206-.529-3.484-1.672-1.284-1.156-1.266-3.078-.017-1.594.844-2.781.857-1.187 2.359-1.844 1.498-.657 3.406-.657c1.29 0 2.422.227 3.39.672q1.454.659 2.267 1.844.81 1.173.828 2.735Zm13.232-5.016h3.656v12.172c0 1.125-.258 2.105-.765 2.937q-.751 1.237-2.094 1.906-1.33.67-3.094.672-1.582 0-2.875-.562a4.56 4.56 0 0 1-2.031-1.703q-.751-1.139-.734-2.875h3.671q.013 1.032.594 1.61.591.578 1.563.577c1.394 0 2.097-.851 2.109-2.562Zm10.382 0v17.453h-3.687v-17.453Zm9.233 17.453h-6.187v-17.453h6.234q2.637.002 4.547 1.047 1.904 1.049 2.922 3 1.03 1.939 1.031 4.656 0 2.735-1.031 4.703a7.1 7.1 0 0 1-2.953 3q-1.91 1.049-4.563 1.047m-2.5-3.156h2.344q2.467 0 3.734-1.328 1.28-1.342 1.281-4.266c0-1.937-.43-3.344-1.28-4.219-.844-.883-2.087-1.328-3.72-1.328h-2.358Zm28.414-8.844h-2.11q-.25-1.2-.983-2.031a4.6 4.6 0 0 0-1.75-1.25 5.5 5.5 0 0 0-2.172-.438c-1.063 0-2.024.274-2.875.813q-1.283.798-2.032 2.36c-.5 1.03-.75 2.304-.75 3.812q0 2.284.75 3.843.749 1.549 2.032 2.36 1.279.797 2.875.797 1.154 0 2.172-.422 1.03-.434 1.75-1.266.732-.824.984-2.031h2.11q-.332 1.782-1.329 3.062a6.36 6.36 0 0 1-2.468 1.954q-1.471.67-3.218.671-2.238 0-3.985-1.078-1.736-1.09-2.734-3.11-.985-2.015-.985-4.78 0-2.749.985-4.766c.664-1.344 1.578-2.375 2.734-3.094q1.746-1.091 3.985-1.093 1.747.002 3.218.671a6.4 6.4 0 0 1 2.47 1.953c.663.844 1.108 1.868 1.327 3.063m18.142 3.266q-.002 2.765-1 4.78-1 2.02-2.735 3.11-1.735 1.078-3.968 1.078-2.238 0-3.985-1.078-1.736-1.09-2.734-3.11-.985-2.015-.985-4.78 0-2.749.985-4.766c.664-1.344 1.578-2.375 2.734-3.094q1.746-1.091 3.985-1.093 2.233.002 3.968 1.093 1.734 1.078 2.735 3.094.998 2.017 1 4.766m-2.047 0c0-1.508-.258-2.782-.766-3.813-.5-1.039-1.18-1.828-2.031-2.36a5.26 5.26 0 0 0-2.86-.812c-1.062 0-2.023.274-2.874.813q-1.283.798-2.032 2.36c-.5 1.03-.75 2.304-.75 3.812q0 2.284.75 3.843.749 1.549 2.032 2.36 1.279.797 2.875.797 1.576 0 2.859-.797 1.28-.811 2.031-2.36.764-1.559.766-3.843m19.429-8.719v17.453h-2.047l-9.515-13.703h-.157v13.703h-2.124v-17.453h2.047l9.546 13.733h.172v-13.734Zm18.068 0v17.453h-2.047l-9.515-13.703h-.157v13.703h-2.124v-17.453h2.047l9.546 13.733h.172v-13.734Zm4.225 17.453v-17.453h10.53v1.875h-8.405v5.89h7.875v1.876h-7.876v5.937h8.547v1.875Zm28.399-12h-2.11q-.25-1.2-.983-2.031a4.6 4.6 0 0 0-1.75-1.25 5.5 5.5 0 0 0-2.172-.438c-1.063 0-2.024.274-2.875.813q-1.283.798-2.032 2.36c-.5 1.03-.75 2.304-.75 3.812q0 2.284.75 3.843.749 1.549 2.032 2.36 1.279.797 2.875.797 1.154 0 2.172-.422 1.03-.434 1.75-1.266.732-.824.984-2.031h2.11q-.332 1.782-1.329 3.062a6.36 6.36 0 0 1-2.468 1.954q-1.471.67-3.218.671-2.238 0-3.985-1.078-1.736-1.09-2.734-3.11-.985-2.015-.985-4.78 0-2.749.985-4.766.998-2.016 2.734-3.094 1.746-1.091 3.985-1.093 1.747.002 3.218.671a6.4 6.4 0 0 1 2.47 1.953c.663.844 1.108 1.868 1.327 3.063m2.454-3.578v-1.875h13.094v1.875h-5.484v15.578h-2.126V261.08Zm0 0"
        fill="#E9C46A" />
</svg>