<svg xmlns="http://www.w3.org/2000/svg" width="50%"
    viewBox="56.21500015258789 46.24599838256836 75.06400680541992 75.06000137329102" height="50%"
    version="1.0">
    <defs>
        <clipPath id="a">
            <path d="M84.5 106h18.5v15.246h-18.5Zm0 0" />
        </clipPath>
        <clipPath id="b">
            <path d="M56.215 74.5H72v19h-15.785Zm0 0" />
        </clipPath>
        <clipPath id="c">
            <path d="M84.5 46.246h18.5V62h-18.5Zm0 0" />
        </clipPath>
        <clipPath id="d">
            <path d="M115.5 74.5h15.715v19H115.5Zm0 0" />
        </clipPath>
    </defs>
    <path fill="#0A2647"
        d="m83.201 58.324 -0.351 0.872a27.3 27.3 0 0 0 -1.885 7.949l-0.076 0.922 0.924 0.074c1.801 0.145 3.557 0.442 5.215 0.875l0.675 0.18 0.355 -0.606a30.15 30.15 0 0 1 3.068 -4.307l0.6 -0.705 -0.708 -0.596a27.25 27.25 0 0 0 -6.953 -4.289Zm5.92 5.489a32 32 0 0 0 -2.299 3.25 32 32 0 0 0 -3.926 -0.674 25.4 25.4 0 0 1 1.324 -5.607 25.5 25.5 0 0 1 4.901 3.031m0 0" />
    <g clip-path="url(#a)">
        <path fill="#0A2647"
            d="m93.748 121.306 0.504 -0.33a27.2 27.2 0 0 0 4.391 -3.567c1.399 -1.395 2.66 -2.978 3.754 -4.703l0.576 -0.906 -0.984 -0.434a30.25 30.25 0 0 1 -7.637 -4.822l-0.604 -0.523 -0.604 0.523a30.2 30.2 0 0 1 -7.636 4.824l-0.983 0.433 0.574 0.905a27.15 27.15 0 0 0 3.75 4.702 27.15 27.15 0 0 0 4.395 3.567Zm-6.506 -8.703a32.3 32.3 0 0 0 6.504 -4.154 32.2 32.2 0 0 0 6.508 4.152 25.5 25.5 0 0 1 -2.916 3.506 25.7 25.7 0 0 1 -3.59 2.986 25.25 25.25 0 0 1 -3.595 -2.986 25.2 25.2 0 0 1 -2.91 -3.504m0 0" />
    </g>
    <path fill="#0A2647"
        d="m104.287 109.237 0.351 -0.872a27.3 27.3 0 0 0 1.883 -7.947l0.078 -0.924 -0.922 -0.074c-0.935 -0.074 -1.695 -0.162 -2.435 -0.283q-0.622 -0.105 -1.204 -0.223a28 28 0 0 1 -1.107 -0.252l-1.145 -0.295 -0.353 0.604c-0.863 1.478 -1.897 2.928 -3.068 4.305l-0.6 0.705 0.707 0.598a27.4 27.4 0 0 0 6.947 4.287Zm-5.916 -5.49a32 32 0 0 0 2.299 -3.248c0.317 0.076 0.646 0.15 1.02 0.227 0.393 0.08 0.81 0.159 1.3 0.242a29.5 29.5 0 0 0 1.602 0.207 25.65 25.65 0 0 1 -1.323 5.604 25.65 25.65 0 0 1 -4.899 -3.031m0 0" />
    <g clip-path="url(#b)">
        <path fill="#0A2647"
            d="m65.739 93.013 0.427 -0.986c0.717 -1.639 1.543 -3.168 2.451 -4.539l0.514 -0.752c0.052 -0.074 0.111 -0.152 0.172 -0.233l0.414 -0.567c0.16 -0.213 0.31 -0.405 0.467 -0.6 0.121 -0.156 0.276 -0.344 0.525 -0.644l0.793 -0.91 -0.525 -0.608a28 28 0 0 1 -1.365 -1.698 26.5 26.5 0 0 1 -0.985 -1.393c-0.915 -1.383 -1.742 -2.912 -2.461 -4.551l-0.427 -0.984 -0.908 0.572a27.25 27.25 0 0 0 -4.718 3.758 27.2 27.2 0 0 0 -3.567 4.396l-0.33 0.503 0.33 0.504a27.25 27.25 0 0 0 3.568 4.399c1.397 1.399 2.984 2.662 4.715 3.756Zm-7.311 -9.232a25.5 25.5 0 0 1 2.99 -3.595 25 25 0 0 1 3.514 -2.918 31.5 31.5 0 0 0 2.16 3.84 29.5 29.5 0 0 0 1.086 1.535c0.285 0.381 0.584 0.762 0.893 1.137a12.5 12.5 0 0 0 -0.332 0.414c-0.186 0.229 -0.377 0.476 -0.59 0.761l-0.32 0.442c-0.083 0.107 -0.165 0.218 -0.26 0.355l-0.482 0.708a31 31 0 0 0 -2.156 3.836 25.2 25.2 0 0 1 -6.502 -6.514m0 0" />
    </g>
    <path fill="#0A2647"
        d="m83.201 109.239 0.868 -0.369a27.4 27.4 0 0 0 6.949 -4.291l0.709 -0.596 -0.6 -0.705c-1.169 -1.377 -2.203 -2.826 -3.068 -4.309l-0.353 -0.604 -0.677 0.178a30.15 30.15 0 0 1 -5.217 0.875l-0.922 0.076 0.076 0.922a27.45 27.45 0 0 0 1.885 7.953Zm3.622 -8.742a32 32 0 0 0 2.299 3.25 25.5 25.5 0 0 1 -4.9 3.034 25.5 25.5 0 0 1 -1.325 -5.612c1.343 -0.145 2.66 -0.371 3.926 -0.672m-19.619 9.82 0.59 0.121c1.805 0.383 3.68 0.576 5.574 0.576 2.034 0 4.065 -0.223 6.041 -0.664l1.049 -0.234 -0.391 -1a30.3 30.3 0 0 1 -1.992 -8.814l-0.059 -0.795 -0.797 -0.059a30.4 30.4 0 0 1 -8.818 -1.99l-1 -0.391 -0.234 1.047a27.25 27.25 0 0 0 -0.668 5.986c0 1.895 0.195 3.787 0.582 5.623Zm1.553 -10.762a32.2 32.2 0 0 0 7.545 1.666 32.1 32.1 0 0 0 1.664 7.54c-3.047 0.548 -6.205 0.546 -9.197 -0.008a25.5 25.5 0 0 1 -0.423 -4.652 25.25 25.25 0 0 1 0.412 -4.545m-0.467 -5.229 0.873 0.351a27.5 27.5 0 0 0 7.945 1.881l0.924 0.076 0.074 -0.922c0.144 -1.799 0.44 -3.555 0.875 -5.215l0.177 -0.677 -0.605 -0.353c-1.479 -0.864 -2.926 -1.895 -4.332 -3.09l-0.709 -0.529 -0.742 0.868c-0.127 0.15 -0.236 0.285 -0.373 0.459a6.5 6.5 0 0 0 -0.225 0.291l-0.244 0.313c-0.129 0.173 -0.254 0.342 -0.435 0.602l-0.524 0.746 0.006 0.004a26.5 26.5 0 0 0 -2.318 4.332Zm4.229 -4.189 0.989 -1.387c0.057 -0.067 0.111 -0.135 0.164 -0.211 0.033 -0.047 0.07 -0.093 0.105 -0.137a31.5 31.5 0 0 0 3.252 2.3 31.5 31.5 0 0 0 -0.674 3.924 25.8 25.8 0 0 1 -5.612 -1.323 25 25 0 0 1 1.776 -3.168m6.641 -12.402 -0.177 -0.678a30 30 0 0 1 -0.875 -5.209l-0.074 -0.923 -0.923 0.078c-2.756 0.233 -5.431 0.865 -7.947 1.883l-0.867 0.351 0.363 0.863a27.25 27.25 0 0 0 2.372 4.41 27.5 27.5 0 0 0 0.898 1.27c0.049 0.065 0.1 0.127 0.162 0.203l0.07 0.086a27 27 0 0 0 0.793 0.98l0.598 0.708 0.705 -0.602c1.373 -1.168 2.818 -2.201 4.301 -3.068Zm-5.377 1.418a8.5 8.5 0 0 1 -0.162 -0.209l-0.216 -0.268a28.5 28.5 0 0 1 -0.854 -1.208 25 25 0 0 1 -1.803 -3.212 25.5 25.5 0 0 1 5.607 -1.323 32 32 0 0 0 0.674 3.92 32.5 32.5 0 0 0 -3.247 2.299m-7.283 -15.688c0 2.007 0.225 4.021 0.668 5.984l0.236 1.047 0.998 -0.391a30.2 30.2 0 0 1 8.819 -1.998l0.796 -0.059 0.059 -0.795a30.2 30.2 0 0 1 1.992 -8.81l0.391 -0.998 -1.047 -0.236c-3.824 -0.86 -7.84 -0.888 -11.613 -0.092l-0.59 0.125 -0.123 0.588a27.3 27.3 0 0 0 -0.586 5.635m2.273 -4.659c2.994 -0.555 6.154 -0.555 9.195 -0.005a32 32 0 0 0 -1.665 7.533 32 32 0 0 0 -7.545 1.672 25.4 25.4 0 0 1 0.015 -9.2m0 0" />
    <path fill="#0A2647"
        d="m105.201 88.82 0.037 -0.131c0.025 -0.082 0.057 -0.158 0.098 -0.24 0.025 -0.049 0.049 -0.098 0.08 -0.145l0.092 -0.115a1.25 1.25 0 0 1 0.127 -0.135l0.082 -0.076c0.045 -0.037 0.103 -0.069 0.166 -0.105l0.08 -0.057a27 27 0 0 0 5.107 -3.325l0.861 -0.711 -0.861 -0.711a26.75 26.75 0 0 0 -5.045 -3.295l-0.11 -0.067a1.35 1.35 0 0 1 -0.207 -0.137l-0.08 -0.072a1.25 1.25 0 0 1 -0.137 -0.152l-0.051 -0.057 -0.02 -0.025a2 2 0 0 1 -0.119 -0.217c-0.021 -0.045 -0.035 -0.092 -0.049 -0.133 -0.021 -0.067 -0.041 -0.123 -0.053 -0.185 -0.011 -0.047 -0.013 -0.092 -0.019 -0.141a1.5 1.5 0 0 1 -0.004 -0.166c0 -0.043 -0.002 -0.084 0.006 -0.143l0.024 -0.111a0.85 0.85 0 0 0 0.028 -0.159c0.103 -0.318 0.201 -0.638 0.328 -1.046a27.5 27.5 0 0 0 0.862 -4.274c0.021 -0.157 0.033 -0.308 0.057 -0.539l0.113 -1.23 -1.111 0.105a27 27 0 0 0 -5.959 1.262 1.438 1.438 0 0 1 -1.732 -0.719 27.3 27.3 0 0 0 -3.334 -5.114l-0.711 -0.865 -0.713 0.863a27.3 27.3 0 0 0 -3.33 5.115 1.435 1.435 0 0 1 -1.734 0.719 27.2 27.2 0 0 0 -5.973 -1.262l-1.115 -0.107 0.107 1.113a27 27 0 0 0 1.262 5.965 1.442 1.442 0 0 1 -0.717 1.736 27.3 27.3 0 0 0 -5.117 3.338l-0.858 0.713 0.862 0.709a27 27 0 0 0 5.109 3.326 1.44 1.44 0 0 1 0.721 1.736 27.3 27.3 0 0 0 -1.262 5.973l-0.107 1.113 1.115 -0.107a27.2 27.2 0 0 0 5.975 -1.262c0.652 -0.221 1.42 0.091 1.732 0.719a27.15 27.15 0 0 0 3.33 5.114l0.711 0.863 0.713 -0.863a27.15 27.15 0 0 0 3.334 -5.115 1.44 1.44 0 0 1 1.74 -0.715 26 26 0 0 0 2.084 0.605 29.5 29.5 0 0 0 2.141 0.436c0.56 0.091 1.141 0.166 1.728 0.221l1.107 0.107 -0.117 -1.285c-0.015 -0.168 -0.029 -0.334 -0.051 -0.49a27.5 27.5 0 0 0 -0.889 -4.36c-0.098 -0.32 -0.197 -0.64 -0.3 -0.975l-0.025 -0.14 -0.028 -0.114c-0.005 -0.059 -0.005 -0.116 -0.005 -0.172 0 -0.041 0 -0.08 0.005 -0.133 0.004 -0.055 0.01 -0.105 0.02 -0.156m-0.06 -2.654a1.7 1.7 0 0 0 -0.209 0.125 3 3 0 0 0 -0.353 0.24 2.5 2.5 0 0 0 -0.244 0.217 3.5 3.5 0 0 0 -0.236 0.252q-0.086 0.084 -0.154 0.177c-0.039 0.055 -0.072 0.114 -0.069 0.114q0.001 0.001 0.002 -0.002a4 4 0 0 0 -0.188 0.332 3.5 3.5 0 0 0 -0.231 0.59 3 3 0 0 0 -0.065 0.238 3.5 3.5 0 0 0 -0.063 0.66c0 0.119 0.004 0.248 0.02 0.38 0.009 0.086 0.027 0.172 0.049 0.258l0.018 0.103c0.013 0.078 0.031 0.172 0.065 0.272 0.102 0.31 0.197 0.619 0.313 0.993a26 26 0 0 1 0.73 3.453c-0.156 -0.024 -0.312 -0.045 -0.465 -0.07a27 27 0 0 1 -1.998 -0.41 23 23 0 0 1 -1.938 -0.558c-1.539 -0.525 -3.25 0.177 -3.98 1.637a25.35 25.35 0 0 1 -2.397 3.864 25.5 25.5 0 0 1 -2.393 -3.864 3.26 3.26 0 0 0 -2.932 -1.81c-0.35 0 -0.7 0.057 -1.035 0.168a25.2 25.2 0 0 1 -4.424 1.041 25.5 25.5 0 0 1 1.041 -4.426c0.511 -1.535 -0.198 -3.242 -1.647 -3.966a25.35 25.35 0 0 1 -3.86 -2.389 25.5 25.5 0 0 1 3.865 -2.398c1.448 -0.729 2.152 -2.434 1.639 -3.969A25 25 0 0 1 82.965 73a25.2 25.2 0 0 1 4.423 1.039c1.534 0.508 3.243 -0.195 3.969 -1.645a25.35 25.35 0 0 1 2.393 -3.861 25.3 25.3 0 0 1 2.395 3.864c0.726 1.449 2.431 2.155 3.969 1.641a25.2 25.2 0 0 1 4.416 -1.039 26 26 0 0 1 -0.754 3.512c-0.096 0.31 -0.192 0.619 -0.291 0.929a2.7 2.7 0 0 0 -0.082 0.373 2 2 0 0 0 -0.047 0.254c-0.018 0.133 -0.02 0.252 -0.02 0.365a3.5 3.5 0 0 0 0.059 0.66c0.03 0.145 0.073 0.283 0.116 0.414q0.052 0.158 0.119 0.31c0.074 0.163 0.158 0.317 0.233 0.42l0.086 0.143c0.045 0.063 0.095 0.119 0.109 0.127a3.5 3.5 0 0 0 0.498 0.502 2.85 2.85 0 0 0 0.438 0.293l0.148 0.09a25 25 0 0 1 3.856 2.389 25.2 25.2 0 0 1 -3.855 2.386m-0.767 1.315" />
    <path fill="#0A2647"
        d="m104.291 58.324 -0.865 0.367a27.25 27.25 0 0 0 -6.952 4.287l-0.707 0.598 0.6 0.707a30.25 30.25 0 0 1 3.068 4.305l0.355 0.605 0.676 -0.177a30 30 0 0 1 5.21 -0.875l0.922 -0.076 -0.076 -0.922a27.4 27.4 0 0 0 -1.879 -7.947Zm-3.619 8.739a32 32 0 0 0 -2.301 -3.252 25.5 25.5 0 0 1 4.901 -3.029 25.5 25.5 0 0 1 1.32 5.607c-1.34 0.146 -2.654 0.373 -3.92 0.674m0 0" />
    <g clip-path="url(#c)">
        <path fill="#0A2647"
            d="m93.746 46.246 -0.502 0.33a27.35 27.35 0 0 0 -4.394 3.575 27.5 27.5 0 0 0 -3.75 4.705l-0.576 0.906 0.985 0.432a30.2 30.2 0 0 1 7.635 4.82l0.603 0.523 0.604 -0.523a30.1 30.1 0 0 1 7.639 -4.82l0.982 -0.432 -0.572 -0.906a27.3 27.3 0 0 0 -3.75 -4.707 27.5 27.5 0 0 0 -4.396 -3.57Zm6.51 8.711a32 32 0 0 0 -6.51 4.15 32 32 0 0 0 -6.504 -4.148 25.35 25.35 0 0 1 2.916 -3.504 25.5 25.5 0 0 1 3.59 -2.996 26 26 0 0 1 3.598 2.992 25.2 25.2 0 0 1 2.91 3.506m0 0" />
    </g>
    <path fill="#0A2647"
        d="M114.125 111.013c1.887 0 3.761 -0.193 5.572 -0.572l0.592 -0.121 0.123 -0.592a27.5 27.5 0 0 0 0.578 -5.629c0 -2.002 -0.223 -4.013 -0.664 -5.984l-0.236 -1.046 -1 0.391c-0.559 0.218 -1.059 0.4 -1.528 0.555l-0.168 0.052a20.5 20.5 0 0 1 -0.592 0.185l-0.115 0.034c-1.922 0.573 -3.93 0.954 -6.063 1.139l-1.153 0.08 -0.059 0.8a30.3 30.3 0 0 1 -1.992 8.81l-0.391 1.002 1.048 0.235a27.85 27.85 0 0 0 6.045 0.661m-2.939 -9.755 0.541 -0.037v-0.052a32 32 0 0 0 5.459 -1.105l0.142 -0.041a28 28 0 0 0 0.631 -0.199l0.781 -0.25a25.5 25.5 0 0 1 0.406 4.527c0 1.573 -0.142 3.135 -0.42 4.652 -3.002 0.552 -6.162 0.552 -9.203 0.006a32.25 32.25 0 0 0 1.662 -7.5m2.054 -14.858a30 30 0 0 1 -4.303 3.067l-0.604 0.353 0.176 0.675a30.5 30.5 0 0 1 0.765 4.039c0.045 0.365 0.083 0.737 0.11 1.1l0.068 0.992 1.022 -0.07a27.5 27.5 0 0 0 6.172 -1.264 27 27 0 0 0 1.688 -0.615l0.871 -0.352 -0.369 -0.865a27.25 27.25 0 0 0 -4.291 -6.953l-0.598 -0.707Zm3.506 6.909a21 21 0 0 1 -0.672 0.233 26 26 0 0 1 -0.719 0.223 25.5 25.5 0 0 1 -4.211 0.87c-0.013 -0.107 -0.025 -0.217 -0.039 -0.327l-0.004 -0.031a32.5 32.5 0 0 0 -0.638 -3.57 31.5 31.5 0 0 0 3.248 -2.3 25.5 25.5 0 0 1 3.035 4.902m2.459 -20.07 -0.871 -0.352a27.3 27.3 0 0 0 -7.944 -1.885l-0.922 -0.077 -0.074 0.92a34.5 34.5 0 0 1 -0.121 1.207 30.5 30.5 0 0 1 -0.763 4.011l-0.174 0.676 0.604 0.353a30 30 0 0 1 4.303 3.07l0.705 0.6 0.598 -0.708c1.783 -2.111 3.228 -4.449 4.291 -6.951Zm-5.492 5.916a32 32 0 0 0 -3.25 -2.301 32 32 0 0 0 0.64 -3.584q0.021 -0.167 0.039 -0.336a25.35 25.35 0 0 1 5.604 1.32 25.5 25.5 0 0 1 -3.033 4.901m6.613 -9.71a27.4 27.4 0 0 0 0.08 -11.619l-0.125 -0.588 -0.588 -0.123c-3.777 -0.795 -7.791 -0.761 -11.611 0.096l-1.047 0.236 0.389 1a30.2 30.2 0 0 1 1.99 8.81l0.059 0.797 0.795 0.057a30.2 30.2 0 0 1 8.822 1.994l1 0.389Zm-1.591 -1.439a32.15 32.15 0 0 0 -7.547 -1.67 32 32 0 0 0 -1.664 -7.535c3.043 -0.549 6.201 -0.549 9.197 0.002a25.45 25.45 0 0 1 0.014 9.204m0 0" />
    <g clip-path="url(#d)">
        <path fill="#0A2647"
            d="m121.766 93.008 0.91 -0.577a27.7 27.7 0 0 0 4.699 -3.748 27.15 27.15 0 0 0 3.574 -4.399l0.33 -0.505 -0.33 -0.504a27.2 27.2 0 0 0 -3.57 -4.391c-1.393 -1.395 -2.977 -2.656 -4.705 -3.752l-0.908 -0.577 -0.43 0.985a30.3 30.3 0 0 1 -4.824 7.635l-0.523 0.604 0.523 0.605a30.3 30.3 0 0 1 4.827 7.637Zm0.803 -15.732a25.5 25.5 0 0 1 3.507 2.916 25.5 25.5 0 0 1 2.99 3.588 25.2 25.2 0 0 1 -2.992 3.595 25.5 25.5 0 0 1 -3.503 2.912 32.15 32.15 0 0 0 -4.157 -6.508 32.1 32.1 0 0 0 4.154 -6.504m0 0" />
    </g>
</svg>