<svg xmlns="http://www.w3.org/2000/svg" class="tesselation" viewBox="-0.005 -0.005 800 800">
    <defs>
        <pattern id="pattern" viewBox="-0.005 -0.005 800 800" height="20%" width="20%">
            <path
                d="M300,300L359.175,300L400,258.579L440.825,300L500,300L500,359.175L541.421,400L500,440.825L500,500L440.825,500L400,541.421L359.175,500L300,500L300,440.825L258.579,400L300,359.175L300,300"
                fill="none" class="sun" name="sun"></path>
            <path d="M158.579,300L300,300L300,359.175L258.579,400L158.579,300" fill="none"
                class="dart-0" name="dart-0" transform="rotate(0)" transform-origin="400 400"></path>
            <path d="M158.579,300L300,300L300,359.175L258.579,400L158.579,300" fill="none"
                class="dart-1" name="dart-1" transform="rotate(45)" transform-origin="400 400"></path>
            <path d="M158.579,300L300,300L300,359.175L258.579,400L158.579,300" fill="none"
                class="dart-2" name="dart-2" transform="rotate(90)" transform-origin="400 400"></path>
            <path d="M158.579,300L300,300L300,359.175L258.579,400L158.579,300" fill="none"
                class="dart-3" name="dart-3" transform="rotate(135)" transform-origin="400 400"></path>
            <path d="M158.579,300L300,300L300,359.175L258.579,400L158.579,300" fill="none"
                class="dart-4" name="dart-4" transform="rotate(180)" transform-origin="400 400"></path>
            <path d="M158.579,300L300,300L300,359.175L258.579,400L158.579,300" fill="none"
                class="dart-5" name="dart-5" transform="rotate(225)" transform-origin="400 400"></path>
            <path d="M158.579,300L300,300L300,359.175L258.579,400L158.579,300" fill="none"
                class="dart-6" name="dart-6" transform="rotate(270)" transform-origin="400 400"></path>
            <path d="M158.579,300L300,300L300,359.175L258.579,400L158.579,300" fill="none"
                class="dart-7" name="dart-7" transform="rotate(315)" transform-origin="400 400"></path>
            <path
                d="M117.157,117.157L217.157,75.736L300,158.579L300,300L158.579,300L75.736,217.157L117.157,117.157"
                fill="none" class="petal-0" name="petal-0" transform="rotate(0)"
                transform-origin="400 400"></path>
            <path
                d="M117.157,117.157L217.157,75.736L300,158.579L300,300L158.579,300L75.736,217.157L117.157,117.157"
                fill="none" class="petal-1" name="petal-1" transform="rotate(45)"
                transform-origin="400 400"></path>
            <path
                d="M117.157,117.157L217.157,75.736L300,158.579L300,300L158.579,300L75.736,217.157L117.157,117.157"
                fill="none" class="petal-2" name="petal-2" transform="rotate(90)"
                transform-origin="400 400"></path>
            <path
                d="M117.157,117.157L217.157,75.736L300,158.579L300,300L158.579,300L75.736,217.157L117.157,117.157"
                fill="none" class="petal-3" name="petal-3" transform="rotate(135)"
                transform-origin="400 400"></path>
            <path
                d="M117.157,117.157L217.157,75.736L300,158.579L300,300L158.579,300L75.736,217.157L117.157,117.157"
                fill="none" class="petal-4" name="petal-4" transform="rotate(180)"
                transform-origin="400 400"></path>
            <path
                d="M117.157,117.157L217.157,75.736L300,158.579L300,300L158.579,300L75.736,217.157L117.157,117.157"
                fill="none" class="petal-5" name="petal-5" transform="rotate(225)"
                transform-origin="400 400"></path>
            <path
                d="M117.157,117.157L217.157,75.736L300,158.579L300,300L158.579,300L75.736,217.157L117.157,117.157"
                fill="none" class="petal-6" name="petal-6" transform="rotate(270)"
                transform-origin="400 400"></path>
            <path
                d="M117.157,117.157L217.157,75.736L300,158.579L300,300L158.579,300L75.736,217.157L117.157,117.157"
                fill="none" class="petal-7" name="petal-7" transform="rotate(315)"
                transform-origin="400 400"></path>
            <path
                d="M117.157,117.157L165.685,0L400,0L300,40.825L300,158.579L217.157,75.736L117.157,117.157"
                fill="none" transform="rotate(0) scale(-1,1)" transform-origin="400 400"
                class="star-0" name="star-0"></path>
            <path
                d="M117.157,117.157L165.685,0L400,0L300,40.825L300,158.579L217.157,75.736L117.157,117.157"
                fill="none" transform="rotate(0)" transform-origin="400 400"
                class="star0-flipped" name="star0-flipped"></path>
            <path
                d="M117.157,117.157L165.685,0L400,0L300,40.825L300,158.579L217.157,75.736L117.157,117.157"
                fill="none" transform="rotate(90)" transform-origin="400 400" class="star-1"
                name="star-1"></path>
            <path
                d="M117.157,117.157L165.685,0L400,0L300,40.825L300,158.579L217.157,75.736L117.157,117.157"
                fill="none" transform="rotate(90) scale(-1, 1)" transform-origin="400 400"
                class="star1-flipped" name="star1-flipped"></path>
            <path
                d="M117.157,117.157L165.685,0L400,0L300,40.825L300,158.579L217.157,75.736L117.157,117.157"
                fill="none" transform="rotate(180) scale(-1,1)" transform-origin="400 400"
                class="star-2" name="star-2"></path>
            <path
                d="M117.157,117.157L165.685,0L400,0L300,40.825L300,158.579L217.157,75.736L117.157,117.157"
                fill="none" transform="rotate(180)" transform-origin="400 400"
                class="star2-flipped" name="star2-flipped"></path>
            <path
                d="M117.157,117.157L165.685,0L400,0L300,40.825L300,158.579L217.157,75.736L117.157,117.157"
                fill="none" transform="rotate(270)" transform-origin="400 400" class="star-3"
                name="star-3"></path>
            <path
                d="M117.157,117.157L165.685,0L400,0L300,40.825L300,158.579L217.157,75.736L117.157,117.157"
                fill="none" transform="rotate(270) scale(-1, 1)" transform-origin="400 400"
                class="star3-flipped" name="star3-flipped"></path>
            <path d="M117.157,117.157L0,165.685L0,0L165.685,0L117.157,117.157" fill="none"
                class="octagon-0" name="octagon-0" transform="rotate(0)" transform-origin="400 400"></path>
            <path d="M117.157,117.157L0,165.685L0,0L165.685,0L117.157,117.157" fill="none"
                class="octagon-1" name="octagon-1" transform="rotate(90)" transform-origin="400 400"></path>
            <path d="M117.157,117.157L0,165.685L0,0L165.685,0L117.157,117.157" fill="none"
                class="octagon-2" name="octagon-2" transform="rotate(180)"
                transform-origin="400 400"></path>
            <path d="M117.157,117.157L0,165.685L0,0L165.685,0L117.157,117.157" fill="none"
                class="octagon-3" name="octagon-3" transform="rotate(270)"
                transform-origin="400 400"></path>
            <g id="quarter">
                <path d="M0,165.685L217.157,75.736L400,258.579L359.175,300L40.825,300L0,400"
                    stroke="#e6c464" stroke-width="23" stroke-linecap="square" fill="none"></path>
                <path d="M165.685,0L75.736,217.157L258.579,400L300,359.175L300,40.825L400,0"
                    stroke="#e6c464" stroke-width="23" stroke-linecap="square" fill="none"></path>
            </g>
            <use href="#quarter" transform="rotate(0)" transform-origin="400 400"></use>
            <use href="#quarter" transform="rotate(90)" transform-origin="400 400"></use>
            <use href="#quarter" transform="rotate(180)" transform-origin="400 400"></use>
            <use href="#quarter" transform="rotate(270)" transform-origin="400 400"></use>
        </pattern>
    </defs>
    <rect width="100%" height="100%" fill="url(#pattern)" stroke="none"></rect>
</svg>